<?xml version="1.0" encoding="utf-8"?>
<!-- Generator: Adobe Illustrator 16.0.0, SVG Export Plug-In . SVG Version: 6.00 Build 0)  -->
<!DOCTYPE svg PUBLIC "-//W3C//DTD SVG 1.1//EN" "http://www.w3.org/Graphics/SVG/1.1/DTD/svg11.dtd">
<svg version="1.1" id="Layer_1" xmlns="http://www.w3.org/2000/svg" xmlns:xlink="http://www.w3.org/1999/xlink" x="0px" y="0px"
	 width="568.033px" height="626.378px" viewBox="0 0 568.033 626.378" enable-background="new 0 0 568.033 626.378"
	 xml:space="preserve">
<path opacity="0.3" fill="#F5F2A0" d="M45.699,600.149c0,0,106.817-51.575,238.317-25.178s242.096-26.757,229.62-75.563
	s-53.876-104.813-9.364-289.475c6.233-25.86,79.577-172.734-13.608-187.116c0,0-54.331-21.526-194.322,7.678
	C156.35,59.7,152.542,8.007,124.863,10.104s-40.25,63.791,0.202,92.527s-17.659,147.07-19.02,173.737s-49.051,56.083-19.373,223.042
	C86.672,499.409-26.618,511.431,45.699,600.149z"/>
<linearGradient id="SVGID_1_" gradientUnits="userSpaceOnUse" x1="310.8945" y1="388.4751" x2="160.6992" y2="856.9668">
	<stop  offset="0" style="stop-color:#FFFFFF"/>
	<stop  offset="1" style="stop-color:#000000"/>
</linearGradient>
<path opacity="0.6" fill="url(#SVGID_1_)" d="M490.677,433.803c0,0-142.254,78.525-269.237,62.652
	C94.456,480.583-15.465,506.91,26.392,577.996c10.55,13.964,14.585,18.067,22.032,19.151s76.984-46.723,225.397-26.882
	s238.436-12.203,242.631-67.213C520.646,448.042,490.677,433.803,490.677,433.803z"/>
<linearGradient id="SVGID_2_" gradientUnits="userSpaceOnUse" x1="330.6807" y1="129.7969" x2="291.5141" y2="-56.0362">
	<stop  offset="0" style="stop-color:#FFFFFF"/>
	<stop  offset="0.0869" style="stop-color:#F6F6F6"/>
	<stop  offset="0.2169" style="stop-color:#E4E5E6"/>
	<stop  offset="0.3739" style="stop-color:#C9CACC"/>
	<stop  offset="0.552" style="stop-color:#A3A5A7"/>
	<stop  offset="0.7478" style="stop-color:#76777A"/>
	<stop  offset="0.9555" style="stop-color:#303031"/>
	<stop  offset="1" style="stop-color:#000000"/>
</linearGradient>
<path opacity="0.6" fill="url(#SVGID_2_)" d="M124.863,10.104c0,0-62.925,28.943,0.202,92.527c0,0,83.386-6.218,174.515-10.973
	c107.507-5.609,225.797-12.033,230.77-45.123c5.476-36.432-174.197-29.752-202.206-23.46S213.342,57.452,124.863,10.104z"/>
<g>
	<path fill="none" stroke="#797A7D" stroke-width="2.126" stroke-miterlimit="10" d="M452.962,511.543l37.144-4.001
		c0.585-13.197-15.008-43.507-25.931-44.214c-13.515-0.875-23.665,29.643-24.388,45.973c-0.896,20.203,17.751,38.507,34.473,39.589
		c20.688,1.34,38.358-17.84,39.467-42.836c1.371-30.928-23.985-72.463-25.367-111.366c-0.477-13.419-3.277-48.919,8.401-134.704
		c8.763-64.364,11.368-81.136,38.621-141.481c11.111-24.604,2.582-58.682-5.033-71.968s-27.602-26.012-58.535-24.812
		c-25.002,0.969-44.279,18.533-43.055,39.228c0.989,16.728,33.588,34.369,53.795,33.583c16.334-0.632,25.927-25.147,25.126-38.667
		l-51.333,6.667"/>
	<path fill="none" stroke="#797A7D" stroke-width="2.126" stroke-miterlimit="10" d="M467.747,92.542L298.08,89.139L125.064,102.63
		c-53.968-50.001-14.286-97.762,3.968-92.063s42.523,50.893,182.54,15.08c72.111-18.444,173.016-4.001,173.016-4.001"/>
	<path fill="none" stroke="#797A7D" stroke-width="2.126" stroke-miterlimit="10" d="M459.325,464.361
		c0,0-113.627,50.97-240.61,35.097c-126.984-15.873-233.249,9.069-191.392,80.155c0,0,9.254,11.35,19.239,17.066
		s76.122-43.253,224.535-23.412c0,0,155.548,24.521,219.567-27.772"/>
	<path fill="none" stroke="#797A7D" stroke-width="2.126" stroke-miterlimit="10" d="M133.001,102.63
		c0,0,12.698,76.19-26.646,159.702C69.9,339.713,72.883,427.136,86.672,499.409"/>
</g>
</svg>
